<?xml version="1.0" encoding="utf-8"?><svg viewBox="0 0 22 25" xmlns="http://www.w3.org/2000/svg" xmlns:xlink="http://www.w3.org/1999/xlink"><style>:root>svg{display:none}:root>svg:target{display:block}</style><svg fill="none" viewBox="0 0 16 18" id="calendar" xmlns="http://www.w3.org/2000/svg"><path d="M.429 6.545H15.57a.42.42 0 01.429.41v8.863c0 .904-.768 1.636-1.714 1.636H1.714C.768 17.454 0 16.723 0 15.819V6.955a.42.42 0 01.429-.41zM16 5.045V3.818c0-.903-.768-1.636-1.714-1.636H12.57V.409A.42.42 0 0012.143 0h-1.429a.42.42 0 00-.428.41v1.772H5.714V.409A.42.42 0 005.286 0H3.857a.42.42 0 00-.428.41v1.772H1.714C.768 2.182 0 2.915 0 3.818v1.227c0 .225.193.41.429.41H15.57a.42.42 0 00.429-.41z" fill="#6D6D6D"/></svg><svg fill="none" viewBox="0 0 16 16" id="facebook" xmlns="http://www.w3.org/2000/svg"><path d="M16 8.049C16 3.602 12.42 0 8 0S0 3.602 0 8.049C0 12.066 2.925 15.396 6.75 16v-5.625H4.718V8.05H6.75V6.275c0-2.017 1.194-3.13 3.022-3.13.875 0 1.79.156 1.79.156v1.98h-1.008c-.994 0-1.304.62-1.304 1.257v1.51h2.219l-.355 2.327H9.25V16c3.825-.604 6.75-3.934 6.75-7.951z" fill="#3C5E97"/></svg><svg fill="none" viewBox="0 0 22 24" id="login" xmlns="http://www.w3.org/2000/svg"><path d="M11 12c3.472 0 6.286-2.686 6.286-6S14.472 0 11 0C7.528 0 4.714 2.686 4.714 6S7.528 12 11 12zm4.4 1.5h-.82a8.92 8.92 0 01-7.16 0H6.6c-3.644 0-6.6 2.822-6.6 6.3v1.95C0 22.992 1.056 24 2.357 24h17.286C20.944 24 22 22.992 22 21.75V19.8c0-3.478-2.956-6.3-6.6-6.3z" fill="#6D6D6D"/></svg><svg fill="none" viewBox="0 0 16 18" id="message" xmlns="http://www.w3.org/2000/svg"><path d="M14 0H2C.897 0 0 .978 0 2.182V12c0 1.203.897 2.182 2 2.182h3v2.864c0 .334.35.528.597.33L9.5 14.182H14c1.103 0 2-.979 2-2.182V2.182C16 .978 15.103 0 14 0z" fill="#6D6D6D"/></svg><svg fill="none" viewBox="0 0 22 25" id="search" xmlns="http://www.w3.org/2000/svg"><path d="M21.7 20.752l-4.285-4.674a.988.988 0 00-.73-.328h-.7c1.185-1.655 1.89-3.736 1.89-6 0-5.386-4-9.75-8.938-9.75C4 0 0 4.364 0 9.75s4 9.75 8.938 9.75c2.075 0 3.983-.769 5.5-2.063v.765c0 .3.107.585.3.796l4.284 4.674a.968.968 0 001.457 0l1.216-1.327c.404-.44.404-1.153.004-1.593zM8.937 15.75c-3.038 0-5.5-2.681-5.5-6 0-3.314 2.457-6 5.5-6 3.037 0 5.5 2.681 5.5 6 0 3.314-2.458 6-5.5 6z" fill="#6D6D6D"/></svg><svg fill="none" viewBox="0 0 16 15" id="twitter" xmlns="http://www.w3.org/2000/svg"><path d="M14.355 3.533c.01.155.01.31.01.465 0 4.73-3.299 10.178-9.33 10.178A8.715 8.715 0 010 12.57c.264.034.518.045.792.045 1.533 0 2.944-.565 4.071-1.529-1.442-.033-2.65-1.063-3.066-2.48a3.8 3.8 0 00.62.055c.294 0 .588-.044.862-.122C1.777 8.207.65 6.767.65 5.029v-.045c.437.266.945.432 1.483.454C1.249 4.796.67 3.699.67 2.458A3.8 3.8 0 011.117.654c1.614 2.171 4.04 3.589 6.761 3.744a4.391 4.391 0 01-.081-.82C7.797 1.606 9.259 0 11.077 0c.943 0 1.796.432 2.395 1.13a6.14 6.14 0 002.081-.864 3.529 3.529 0 01-1.441 1.971c.66-.077 1.3-.277 1.888-.554a7.432 7.432 0 01-1.645 1.85z" fill="#00AFEF"/></svg></svg>